<svg xmlns="http://www.w3.org/2000/svg" width="237.7875213623047" height="324.6369934082031" viewBox="-150.21875 -228.99790954589844 237.7875213623047 324.6369934082031"><title>Neo4j Graph Visualization</title><desc>Created using Neo4j (http://www.neo4j.com/)</desc><g class="layer relationships"><g class="relationship" transform="translate(-121.21876081167065 66.63908173221789) rotate(309.44094902635584)"><path class="outline" fill="#A5ABB6" stroke="none" d="M 25 0.5 L 53.12541532325727 0.5 L 53.12541532325727 -0.5 L 25 -0.5 Z M 98.68791532325727 0.5 L 126.81333064651454 0.5 L 126.81333064651454 3.5 L 133.81333064651454 0 L 126.81333064651454 -3.5 L 126.81333064651454 -0.5 L 98.68791532325727 -0.5 Z"/><text text-anchor="middle" pointer-events="none" font-size="8px" fill="#000000" x="75.90666532325727" y="3" font-family="sans-serif">ACTED_IN</text></g><g class="relationship" transform="translate(-121.21876081167065 66.63908173221789) rotate(284.8803821718669)"><path class="outline" fill="#A5ABB6" stroke="none" d="M 25 0.5 L 52.494021332159804 0.5 L 52.494021332159804 -0.5 L 25 -0.5 Z M 98.0565213321598 0.5 L 125.55054266431961 0.5 L 125.55054266431961 3.5 L 132.5505426643196 0 L 125.55054266431961 -3.5 L 125.55054266431961 -0.5 L 98.0565213321598 -0.5 Z"/><text text-anchor="middle" pointer-events="none" font-size="8px" fill="#000000" x="75.2752713321598" y="3" font-family="sans-serif">ACTED_IN</text></g><g class="relationship" transform="translate(-121.21876081167065 66.63908173221789) rotate(333.3998393305983)"><path class="outline" fill="#A5ABB6" stroke="none" d="M 25 0.5 L 69.34940812016666 0.5 L 69.34940812016666 -0.5 L 25 -0.5 Z M 114.91190812016666 0.5 L 159.26131624033331 0.5 L 159.26131624033331 3.5 L 166.26131624033331 0 L 159.26131624033331 -3.5 L 159.26131624033331 -0.5 L 114.91190812016666 -0.5 Z"/><text text-anchor="middle" pointer-events="none" font-size="8px" fill="#000000" x="92.13065812016666" y="3" font-family="sans-serif">ACTED_IN</text></g><g class="relationship" transform="translate(58.568767849350486 -199.9979104604044) rotate(478.7197991272085)"><path class="outline" fill="#A5ABB6" stroke="none" d="M 25 0.5 L 55.81221153004465 0.5 L 55.81221153004465 -0.5 L 25 -0.5 Z M 101.37471153004465 0.5 L 132.1869230600893 0.5 L 132.1869230600893 3.5 L 139.1869230600893 0 L 132.1869230600893 -3.5 L 132.1869230600893 -0.5 L 101.37471153004465 -0.5 Z"/><text text-anchor="middle" pointer-events="none" font-size="8px" fill="#000000" x="78.59346153004465" y="3" transform="rotate(180 78.59346153004465 0)" font-family="sans-serif">ACTED_IN</text></g><g class="relationship" transform="translate(58.568767849350486 -199.9979104604044) rotate(500.6185344873302)"><path class="outline" fill="#A5ABB6" stroke="none" d="M 25 0.5 L 63.84764493940571 0.5 L 63.84764493940571 -0.5 L 25 -0.5 Z M 109.41014493940571 0.5 L 148.25778987881142 0.5 L 148.25778987881142 3.5 L 155.25778987881142 0 L 148.25778987881142 -3.5 L 148.25778987881142 -0.5 L 109.41014493940571 -0.5 Z"/><text text-anchor="middle" pointer-events="none" font-size="8px" fill="#000000" x="86.62889493940571" y="3" transform="rotate(180 86.62889493940571 0)" font-family="sans-serif">ACTED_IN</text></g><g class="relationship" transform="translate(58.568767849350486 -199.9979104604044) rotate(452.77422918490765)"><path class="outline" fill="#A5ABB6" stroke="none" d="M 25 0.5 L 64.32369831698993 0.5 L 64.32369831698993 -0.5 L 25 -0.5 Z M 109.88619831698993 0.5 L 149.20989663397987 0.5 L 149.20989663397987 3.5 L 156.20989663397987 0 L 149.20989663397987 -3.5 L 149.20989663397987 -0.5 L 109.88619831698993 -0.5 Z"/><text text-anchor="middle" pointer-events="none" font-size="8px" fill="#000000" x="87.10494831698993" y="3" transform="rotate(180 87.10494831698993 0)" font-family="sans-serif">ACTED_IN</text></g></g><g class="layer nodes"><g class="node" aria-label="graph-node4" transform="translate(-121.21876081167065,66.63908173221789)"><circle class="outline" cx="0" cy="0" r="25" fill="#F79767" stroke="#f36924" stroke-width="2px"/><text class="caption" text-anchor="middle" pointer-events="none" x="0" y="0" font-size="10px" fill="#FFFFFF" font-family="sans-serif"> Hugo</text><text class="caption" text-anchor="middle" pointer-events="none" x="0" y="10" font-size="10px" fill="#FFFFFF" font-family="sans-serif"> Weavi…</text></g><g class="node" aria-label="graph-node10" transform="translate(-20.32741200715165,-56.00923553077615)"><circle class="outline" cx="0" cy="0" r="25" fill="#C990C0" stroke="#b261a5" stroke-width="2px"/><text class="caption" text-anchor="middle" pointer-events="none" x="0" y="-5" font-size="10px" fill="#FFFFFF" font-family="sans-serif"> The</text><text class="caption" text-anchor="middle" pointer-events="none" x="0" y="5" font-size="10px" fill="#FFFFFF" font-family="sans-serif"> Matrix</text><text class="caption" text-anchor="middle" pointer-events="none" x="0" y="15" font-size="10px" fill="#FFFFFF" font-family="sans-serif"> Rev…</text></g><g class="node" aria-label="graph-node1" transform="translate(58.568767849350486,-199.9979104604044)"><circle class="outline" cx="0" cy="0" r="25" fill="#F79767" stroke="#f36924" stroke-width="2px"/><text class="caption" text-anchor="middle" pointer-events="none" x="0" y="0" font-size="10px" fill="#FFFFFF" font-family="sans-serif"> Keanu</text><text class="caption" text-anchor="middle" pointer-events="none" x="0" y="10" font-size="10px" fill="#FFFFFF" font-family="sans-serif"> Reeves</text></g><g class="node" aria-label="graph-node9" transform="translate(-80.75948288438398,-85.62785599040187)"><circle class="outline" cx="0" cy="0" r="25" fill="#C990C0" stroke="#b261a5" stroke-width="2px"/><text class="caption" text-anchor="middle" pointer-events="none" x="0" y="-5" font-size="10px" fill="#FFFFFF" font-family="sans-serif"> The</text><text class="caption" text-anchor="middle" pointer-events="none" x="0" y="5" font-size="10px" fill="#FFFFFF" font-family="sans-serif"> Matrix</text><text class="caption" text-anchor="middle" pointer-events="none" x="0" y="15" font-size="10px" fill="#FFFFFF" font-family="sans-serif"> Rel…</text></g><g class="node" aria-label="graph-node0" transform="translate(49.79811529770029,-19.000390333978636)"><circle class="outline" cx="0" cy="0" r="25" fill="#C990C0" stroke="#b261a5" stroke-width="2px"/><text class="caption" text-anchor="middle" pointer-events="none" x="0" y="0" font-size="10px" fill="#FFFFFF" font-family="sans-serif"> The</text><text class="caption" text-anchor="middle" pointer-events="none" x="0" y="10" font-size="10px" fill="#FFFFFF" font-family="sans-serif"> Matrix</text></g></g></svg>