<svg xmlns="http://www.w3.org/2000/svg" width="553.5440063476562" height="76.91378784179688" viewBox="-336.0693054199219 -40.075862884521484 553.5440063476562 76.91378784179688"><title>Neo4j Graph Visualization</title><desc>Created using Neo4j (http://www.neo4j.com/)</desc><g class="layer relationships"><g class="relationship" transform="translate(188.47470707143464 1.338825525931881) rotate(180.90811411751616)"><path class="outline" fill="#A5ABB6" stroke="none" d="M 21.40063509461097,12.933012701892217 L 21.90063509461097,12.06698729810778 A 113.57638432376238 113.57638432376238 0 0 0 46.03124722890891,22.48690329934371 L 45.74370875669897,23.444672387902727 A 114.57638432376238 114.57638432376238 0 0 1 21.40063509461097,12.933012701892217 Z M 106.97741189770701,24.736245841783983 L 106.7305147311733,23.7672041558088 A 113.57638432376238 113.57638432376238 0 0 0 131.27903447167583,14.37405399205123 L 129.88991980153622,11.715039055424704 L 137.71492176882765,11.575955584496597 L 133.13118736519527,17.9194072408866 L 131.74207269505567,15.260392304260073 A 114.57638432376238 114.57638432376238 0 0 1 106.97741189770701,24.736245841783983"/><text text-anchor="middle" pointer-events="none" font-size="8px" fill="#000000" x="76.28320325968099" y="30.757970005738827" transform="rotate(180 76.28320325968099 27.757970005738827)" font-family="sans-serif">PublicTransport</text></g><g class="relationship" transform="translate(28.621407911183823 -1.1949945172428216) rotate(181.50504330179842)"><path class="outline" fill="#A5ABB6" stroke="none" d="M 25 0.5 L 70.33841118877238 0.5 L 70.33841118877238 -0.5 L 25 -0.5 Z M 89.67434868877238 0.5 L 135.01275987754477 0.5 L 135.01275987754477 3.5 L 142.01275987754477 0 L 135.01275987754477 -3.5 L 135.01275987754477 -0.5 L 89.67434868877238 -0.5 Z"/><text text-anchor="middle" pointer-events="none" font-size="8px" fill="#000000" x="80.00637993877238" y="3" transform="rotate(180 80.00637993877238 0)" font-family="sans-serif">trek</text></g><g class="relationship" transform="translate(-138.33373539503413 -5.581574678900623) rotate(181.8649789971393)"><path class="outline" fill="#A5ABB6" stroke="none" d="M 25 0.5 L 71.24452720483242 0.5 L 71.24452720483242 -0.5 L 25 -0.5 Z M 90.58046470483242 0.5 L 136.82499190966485 0.5 L 136.82499190966485 3.5 L 143.82499190966485 0 L 136.82499190966485 -3.5 L 136.82499190966485 -0.5 L 90.58046470483242 -0.5 Z"/><text text-anchor="middle" pointer-events="none" font-size="8px" fill="#000000" x="80.91249595483242" y="3" transform="rotate(180 80.91249595483242 0)" font-family="sans-serif">trek</text></g><g class="relationship" transform="translate(188.47470707143464 1.338825525931881) rotate(180.90811411751616)"><path class="outline" fill="#A5ABB6" stroke="none" d="M 25 0.5 L 66.76872103702432 0.5 L 66.76872103702432 -0.5 L 25 -0.5 Z M 86.10465853702432 0.5 L 127.87337957404864 0.5 L 127.87337957404864 3.5 L 134.87337957404864 0 L 127.87337957404864 -3.5 L 127.87337957404864 -0.5 L 86.10465853702432 -0.5 Z"/><text text-anchor="middle" pointer-events="none" font-size="8px" fill="#000000" x="76.43668978702432" y="3" transform="rotate(180 76.43668978702432 0)" font-family="sans-serif">trek</text></g><g class="relationship" transform="translate(188.47470707143464 1.338825525931881) rotate(180.90811411751616)"><path class="outline" fill="#A5ABB6" stroke="none" d="M 21.40063509461097,-12.933012701892217 L 21.90063509461097,-12.06698729810778 A 113.57638432376238 113.57638432376238 0 0 1 65.36668876992508,-26.49930978079182 L 65.24939203992362,-27.4924066930471 A 114.57638432376238 114.57638432376238 0 0 0 21.40063509461097,-12.933012701892217 Z M 87.31839889858549,-27.957897786187957 L 87.24308170566633,-26.960738159823762 A 113.57638432376238 113.57638432376238 0 0 1 131.27903447167583,-14.37405399205123 L 129.88991980153622,-11.715039055424704 L 137.71492176882765,-11.575955584496597 L 133.13118736519527,-17.9194072408866 L 131.74207269505567,-15.260392304260073 A 114.57638432376238 114.57638432376238 0 0 0 87.31839889858549,-27.957897786187957"/><text text-anchor="middle" pointer-events="none" font-size="8px" fill="#000000" x="76.283203259681" y="-24.757970005738827" transform="rotate(180 76.283203259681 -27.757970005738827)" font-family="sans-serif">road</text></g></g><g class="layer nodes"><g class="node" aria-label="graph-node1" transform="translate(188.47470707143464,1.338825525931881)"><circle class="outline" cx="0" cy="0" r="25" fill="#DA7194" stroke="#cc3c6c" stroke-width="2px"/><text class="caption" text-anchor="middle" pointer-events="none" x="0" y="5" font-size="10px" fill="#FFFFFF" font-family="sans-serif"> Darjeeling</text></g><g class="node" aria-label="graph-node3" transform="translate(-307.0692998185743,-11.075861890880638)"><circle class="outline" cx="0" cy="0" r="25" fill="#A5ABB6" stroke="#9AA1AC" stroke-width="2px"/><text class="caption" text-anchor="middle" pointer-events="none" x="0" y="5" font-size="10px" fill="#FFFFFF" font-family="sans-serif"> Sandakp…</text></g><g class="node" aria-label="graph-node0" transform="translate(28.621407911183823,-1.1949945172428216)"><circle class="outline" cx="0" cy="0" r="25" fill="#DA7194" stroke="#cc3c6c" stroke-width="2px"/><text class="caption" text-anchor="middle" pointer-events="none" x="0" y="5" font-size="10px" fill="#FFFFFF" font-family="sans-serif"> Rimbik</text></g><g class="node" aria-label="graph-node2" transform="translate(-138.33373539503413,-5.581574678900623)"><circle class="outline" cx="0" cy="0" r="25" fill="#569480" stroke="#447666" stroke-width="2px"/><text class="caption" text-anchor="middle" pointer-events="none" x="0" y="5" font-size="10px" fill="#FFFFFF" font-family="sans-serif"> BhikeBh…</text></g></g></svg>