<svg xmlns="http://www.w3.org/2000/svg" width="200.1981964111328" height="208.792236328125" viewBox="-105.78398132324219 -93.31454467773438 200.1981964111328 208.792236328125"><title>Neo4j Graph Visualization</title><desc>Created using Neo4j (http://www.neo4j.com/)</desc><g class="layer relationships"><g class="relationship" transform="translate(-30.150219868753474 86.47768401014513) rotate(250.97322237702213)"><path class="outline" fill="#A5ABB6" stroke="none" d="M 25 0.5 L 35.45752433369705 0.5 L 35.45752433369705 -0.5 L 25 -0.5 Z M 100.58643058369705 0.5 L 111.0439549173941 0.5 L 111.0439549173941 3.5 L 118.0439549173941 0 L 111.0439549173941 -3.5 L 111.0439549173941 -0.5 L 100.58643058369705 -0.5 Z"/><text text-anchor="middle" pointer-events="none" font-size="8px" fill="#000000" x="68.02197745869705" y="3" transform="rotate(180 68.02197745869705 0)" font-family="sans-serif">PLANE_TICKET</text></g><g class="relationship" transform="translate(-76.78398165112111 -48.75125261377005) rotate(353.7539603337543)"><path class="outline" fill="#A5ABB6" stroke="none" d="M 25 0.5 L 35.459224584810116 0.5 L 35.459224584810116 -0.5 L 25 -0.5 Z M 100.58813083481012 0.5 L 111.04735541962023 0.5 L 111.04735541962023 3.5 L 118.04735541962023 0 L 111.04735541962023 -3.5 L 111.04735541962023 -0.5 L 100.58813083481012 -0.5 Z"/><text text-anchor="middle" pointer-events="none" font-size="8px" fill="#000000" x="68.02367770981012" y="3" font-family="sans-serif">PLANE_TICKET</text></g></g><g class="layer nodes"><g class="node" aria-label="graph-node21" transform="translate(-30.150219868753474,86.47768401014513)"><circle class="outline" cx="0" cy="0" r="25" fill="#57C7E3" stroke="#23b3d7" stroke-width="2px"/><text class="caption" text-anchor="middle" pointer-events="none" x="0" y="5" font-size="10px" fill="#2A2C34" font-family="sans-serif"> MSN</text></g><g class="node" aria-label="graph-node68" transform="translate(65.41422475740599,-64.31454232851462)"><circle class="outline" cx="0" cy="0" r="25" fill="#57C7E3" stroke="#23b3d7" stroke-width="2px"/><text class="caption" text-anchor="middle" pointer-events="none" x="0" y="5" font-size="10px" fill="#2A2C34" font-family="sans-serif"> GRR</text></g><g class="node" aria-label="graph-node7" transform="translate(-76.78398165112111,-48.75125261377005)"><circle class="outline" cx="0" cy="0" r="25" fill="#57C7E3" stroke="#23b3d7" stroke-width="2px"/><text class="caption" text-anchor="middle" pointer-events="none" x="0" y="5" font-size="10px" fill="#2A2C34" font-family="sans-serif"> ORD</text></g></g></svg>