<svg xmlns="http://www.w3.org/2000/svg" width="199.97915649414062" height="209.65171813964844" viewBox="-106.3861312866211 -94.46014404296875 199.97915649414062 209.65171813964844"><title>Neo4j Graph Visualization</title><desc>Created using Neo4j (http://www.neo4j.com/)</desc><g class="layer relationships"><g class="relationship" transform="translate(-32.155729864163526 86.1915740809637) rotate(251.544747472866)"><path class="outline" fill="#A5ABB6" stroke="none" d="M 25 0.5 L 58.27162851823991 0.5 L 58.27162851823991 -0.5 L 25 -0.5 Z M 77.60756601823991 0.5 L 110.87919453647982 0.5 L 110.87919453647982 3.5 L 117.87919453647982 0 L 110.87919453647982 -3.5 L 110.87919453647982 -0.5 L 77.60756601823991 -0.5 Z"/><text text-anchor="middle" pointer-events="none" font-size="8px" fill="#000000" x="67.93959726823991" y="3" transform="rotate(180 67.93959726823991 0)" font-family="sans-serif">trek</text></g><g class="relationship" transform="translate(-77.38612887666109 -49.33951178705221) rotate(353.5222504032914)"><path class="outline" fill="#A5ABB6" stroke="none" d="M 25 0.5 L 58.277739899766104 0.5 L 58.277739899766104 -0.5 L 25 -0.5 Z M 77.6136773997661 0.5 L 110.89141729953221 0.5 L 110.89141729953221 3.5 L 117.89141729953221 0 L 110.89141729953221 -3.5 L 110.89141729953221 -0.5 L 77.6136773997661 -0.5 Z"/><text text-anchor="middle" pointer-events="none" font-size="8px" fill="#000000" x="67.9457086497661" y="3" font-family="sans-serif">trek</text></g></g><g class="layer nodes"><g class="node" aria-label="graph-node0" transform="translate(-32.155729864163526,86.1915740809637)"><circle class="outline" cx="0" cy="0" r="25" fill="#DA7194" stroke="#cc3c6c" stroke-width="2px"/><text class="caption" text-anchor="middle" pointer-events="none" x="0" y="5" font-size="10px" fill="#FFFFFF" font-family="sans-serif"> Rimbik</text></g><g class="node" aria-label="graph-node3" transform="translate(64.59303280712146,-65.46014407736232)"><circle class="outline" cx="0" cy="0" r="25" fill="#A5ABB6" stroke="#9AA1AC" stroke-width="2px"/><text class="caption" text-anchor="middle" pointer-events="none" x="0" y="5" font-size="10px" fill="#FFFFFF" font-family="sans-serif"> Sandakp…</text></g><g class="node" aria-label="graph-node2" transform="translate(-77.38612887666109,-49.33951178705221)"><circle class="outline" cx="0" cy="0" r="25" fill="#569480" stroke="#447666" stroke-width="2px"/><text class="caption" text-anchor="middle" pointer-events="none" x="0" y="5" font-size="10px" fill="#FFFFFF" font-family="sans-serif"> BhikeBh…</text></g></g></svg>